<svg width="13" height="13" viewBox="0 0 13 13" fill="none" xmlns="http://www.w3.org/2000/svg">
<path d="M12.75 6.50006C12.75 6.69897 12.671 6.88974 12.5303 7.03039C12.3897 7.17104 12.1989 7.25006 12 7.25006H7.25V12.0001C7.25 12.199 7.17098 12.3897 7.03033 12.5304C6.88968 12.671 6.69891 12.7501 6.5 12.7501C6.30109 12.7501 6.11032 12.671 5.96967 12.5304C5.82902 12.3897 5.75 12.199 5.75 12.0001V7.25006H1C0.801088 7.25006 0.610322 7.17104 0.46967 7.03039C0.329018 6.88974 0.25 6.69897 0.25 6.50006C0.25 6.30115 0.329018 6.11038 0.46967 5.96973C0.610322 5.82908 0.801088 5.75006 1 5.75006H5.75V1.00006C5.75 0.801149 5.82902 0.610383 5.96967 0.469731C6.11032 0.329079 6.30109 0.250061 6.5 0.250061C6.69891 0.250061 6.88968 0.329079 7.03033 0.469731C7.17098 0.610383 7.25 0.801149 7.25 1.00006V5.75006H12C12.1989 5.75006 12.3897 5.82908 12.5303 5.96973C12.671 6.11038 12.75 6.30115 12.75 6.50006Z" fill="black"/>
</svg>
